<svg width="69" height="48" viewBox="0 0 69 48" fill="none" xmlns="http://www.w3.org/2000/svg">
<g clip-path="url(#clip0_299_6)">
<mask id="mask0_299_6" style="mask-type:luminance" maskUnits="userSpaceOnUse" x="0" y="0" width="69" height="48">
<path d="M0.015625 0.125977H68.7892V47.9852H0.015625V0.125977Z" fill="white"/>
</mask>
<g mask="url(#mask0_299_6)">
<path fill-rule="evenodd" clip-rule="evenodd" d="M28.6257 5.34742C30.844 3.04945 33.9328 1.62353 37.3487 1.62353C41.8893 1.62353 45.8514 4.14114 47.9606 7.87911C49.8478 7.04063 51.892 6.60848 53.959 6.611C62.149 6.611 68.7887 13.2704 68.7887 21.4857C68.7887 29.701 62.149 36.3607 53.959 36.3607C52.9589 36.3607 51.9823 36.2607 51.0375 36.0712C49.1801 39.3656 45.6391 41.5919 41.5759 41.5919C39.9325 41.5942 38.3102 41.2229 36.8331 40.5065C34.9501 44.9117 30.5614 48.0003 25.4481 48.0003C20.122 48.0003 15.5826 44.6499 13.8415 39.9509C13.0654 40.1137 12.2744 40.1956 11.4813 40.1952C5.14012 40.1952 0 35.0308 0 28.6603C0 24.3906 2.3091 20.6629 5.74115 18.6688C5.01401 17.0039 4.63982 15.2079 4.64196 13.3928C4.64196 6.06591 10.6237 0.125977 18.0024 0.125977C22.3345 0.125977 26.1846 2.17364 28.6257 5.34742Z" fill="#00A1E0"/>
</g>
<path fill-rule="evenodd" clip-rule="evenodd" d="M9.96094 24.9522C9.91772 25.0643 9.97636 25.0877 9.99026 25.1075C10.1194 25.2005 10.2506 25.2679 10.383 25.3435C11.0844 25.7127 11.7474 25.821 12.4399 25.821C13.851 25.821 14.7275 25.0751 14.7275 23.8739V23.8502C14.7275 22.7394 13.738 22.3358 12.8107 22.0446L12.6896 22.0056C11.9903 21.7799 11.3867 21.5847 11.3867 21.1265V21.1032C11.3867 20.7109 11.7395 20.4226 12.2862 20.4226C12.8941 20.4226 13.6144 20.6234 14.079 20.8785C14.079 20.8785 14.2159 20.9665 14.2657 20.835C14.2928 20.7639 14.5276 20.1351 14.5526 20.067C14.5794 19.9934 14.5324 19.9379 14.4841 19.9092C13.9536 19.5878 13.2209 19.3691 12.4624 19.3691L12.3216 19.3696C11.0301 19.3696 10.1283 20.1462 10.1283 21.2575V21.2814C10.1283 22.4524 11.1231 22.8332 12.055 23.0978L12.2046 23.1441C12.8832 23.3511 13.4693 23.5301 13.4693 24.0048V24.0284C13.4693 24.4632 13.0884 24.7861 12.475 24.7861C12.2372 24.7861 11.4779 24.7821 10.6575 24.2661C10.5582 24.2086 10.5016 24.1671 10.425 24.1206C10.3845 24.0963 10.2834 24.0523 10.2395 24.184L9.96094 24.9522ZM30.618 24.9522C30.5748 25.0643 30.6334 25.0877 30.6478 25.1075C30.7764 25.2005 30.9079 25.2679 31.0401 25.3435C31.7417 25.7127 32.4046 25.821 33.0969 25.821C34.508 25.821 35.3848 25.0751 35.3848 23.8739V23.8502C35.3848 22.7394 34.3955 22.3358 33.468 22.0446L33.3469 22.0056C32.6475 21.7799 32.0437 21.5847 32.0437 21.1265V21.1032C32.0437 20.7109 32.3968 20.4226 32.9438 20.4226C33.5514 20.4226 34.2714 20.6234 34.736 20.8785C34.736 20.8785 34.873 20.9665 34.923 20.835C34.9498 20.7639 35.1849 20.1351 35.2096 20.067C35.2367 19.9934 35.1894 19.9379 35.1414 19.9092C34.6106 19.5878 33.8782 19.3691 33.1197 19.3691L32.9786 19.3696C31.6874 19.3696 30.7856 20.1462 30.7856 21.2575V21.2814C30.7856 22.4524 31.7801 22.8332 32.7122 23.0978L32.8616 23.1441C33.5405 23.3511 34.1266 23.5301 34.1266 24.0048V24.0284C34.1266 24.4632 33.7455 24.7861 33.1326 24.7861C32.8942 24.7861 32.135 24.7821 31.3148 24.2661C31.2155 24.2086 31.1573 24.1689 31.082 24.1206C31.0565 24.1046 30.9375 24.0583 30.8968 24.184L30.618 24.9522ZM44.72 22.599C44.72 23.2775 44.5926 23.8133 44.3424 24.191C44.0937 24.5655 43.7184 24.7477 43.1949 24.7477C42.6715 24.7477 42.2982 24.5657 42.0535 24.1915C41.8066 23.8135 41.6812 23.2775 41.6812 22.599C41.6812 21.9209 41.8066 21.3869 42.0535 21.013C42.2982 20.6423 42.6715 20.4623 43.1949 20.4623C43.7184 20.4623 44.0937 20.6425 44.3424 21.0132C44.5931 21.3869 44.72 21.9209 44.72 22.599ZM45.8983 21.3407C45.7823 20.9514 45.6021 20.6088 45.3622 20.3231C45.1219 20.0366 44.8178 19.8062 44.4574 19.6393C44.0975 19.4722 43.6729 19.3875 43.1949 19.3875C42.717 19.3875 42.2921 19.4722 41.932 19.6393C41.572 19.8062 41.2677 20.0366 41.0274 20.3236C40.7878 20.6099 40.6071 20.9519 40.4915 21.3407C40.3765 21.7269 40.3182 22.1504 40.3182 22.599C40.3182 23.0478 40.3765 23.4715 40.4915 23.8573C40.6071 24.2458 40.7873 24.5881 41.0276 24.8748C41.268 25.1618 41.5731 25.3903 41.9325 25.5531C42.2929 25.7159 42.7175 25.7989 43.1949 25.7989C43.6726 25.7989 44.0967 25.7159 44.4569 25.5531C44.8168 25.3903 45.1214 25.1618 45.3622 24.8748C45.6021 24.5891 45.7823 24.2463 45.8983 23.8573C46.0131 23.4708 46.0715 23.0473 46.0715 22.599C46.0715 22.1509 46.0131 21.7272 45.8983 21.3407ZM55.5702 24.566C55.5315 24.4521 55.4198 24.4951 55.4198 24.4951C55.2487 24.5602 55.0667 24.6205 54.8721 24.6506C54.676 24.6813 54.4589 24.6966 54.2266 24.6966C53.6572 24.6966 53.2035 24.528 52.8797 24.1948C52.5544 23.8613 52.3717 23.3225 52.3737 22.5937C52.3755 21.9312 52.5367 21.4321 52.8259 21.0517C53.1125 20.6737 53.5502 20.4797 54.1323 20.4797C54.6184 20.4797 54.9891 20.5357 55.3776 20.6568C55.3776 20.6568 55.4699 20.6968 55.5141 20.5759C55.6175 20.2912 55.6938 20.0886 55.804 19.7758C55.8353 19.6865 55.7585 19.6488 55.7304 19.638C55.5778 19.5787 55.2171 19.4815 54.9449 19.4405C54.6904 19.4018 54.3929 19.3817 54.061 19.3817C53.5664 19.3817 53.1254 19.4659 52.7483 19.6328C52.3719 19.7994 52.0527 20.0296 51.7997 20.3158C51.5467 20.6026 51.3541 20.9451 51.2267 21.3336C51.0991 21.7201 51.0346 22.1443 51.0346 22.5942C51.0346 23.5655 51.2983 24.3503 51.8182 24.9253C52.3398 25.5023 53.1223 25.7954 54.1437 25.7954C54.747 25.7954 55.366 25.674 55.8118 25.4996C55.8118 25.4996 55.8967 25.4589 55.8598 25.3603L55.5702 24.566ZM57.6311 21.9483C57.6875 21.5711 57.7913 21.2577 57.9534 21.013C58.1978 20.6423 58.5698 20.438 59.0932 20.438C59.6169 20.438 59.9619 20.6425 60.2106 21.0132C60.3749 21.2582 60.4467 21.5847 60.4748 21.9488L57.6311 21.9483ZM61.5965 21.1198C61.4961 20.7443 61.2489 20.3651 61.0864 20.1917C60.8299 19.9167 60.5786 19.7242 60.3292 19.6179C59.9681 19.4654 59.5798 19.387 59.1875 19.3875C58.6899 19.3875 58.2377 19.4712 57.871 19.6421C57.5037 19.8135 57.1951 20.0477 56.9532 20.3387C56.7108 20.6295 56.5291 20.9755 56.4131 21.3681C56.2968 21.7583 56.2382 22.1838 56.2382 22.6331C56.2382 23.09 56.2991 23.516 56.4189 23.899C56.54 24.2852 56.7344 24.6243 56.9967 24.9065C57.2588 25.1897 57.5962 25.4119 57.9994 25.5667C58.4005 25.7212 58.8878 25.8014 59.4466 25.7996C60.5986 25.7959 61.2044 25.5405 61.4547 25.4031C61.4989 25.3784 61.5406 25.336 61.4885 25.2136L61.2277 24.4878C61.1878 24.3795 61.0776 24.4187 61.0776 24.4187C60.7917 24.5247 60.3871 24.714 59.4408 24.712C58.8226 24.711 58.3646 24.5293 58.0767 24.2455C57.7822 23.9553 57.6377 23.5291 57.6132 22.9269L61.5995 22.9299C61.5995 22.9299 61.7046 22.9289 61.7155 22.8269C61.7198 22.7847 61.8522 22.0127 61.5965 21.1198ZM25.6993 21.9483C25.7556 21.5711 25.8598 21.2577 26.0215 21.013C26.2662 20.6423 26.6377 20.438 27.1617 20.438C27.6854 20.438 28.0304 20.6425 28.2791 21.0132C28.4431 21.2582 28.5149 21.5847 28.5429 21.9488L25.6993 21.9483ZM29.6646 21.1198C29.5645 20.7443 29.3171 20.3651 29.1548 20.1917C28.8983 19.9167 28.6473 19.7242 28.3976 19.6179C28.0365 19.4654 27.6482 19.3871 27.2559 19.3875C26.7583 19.3875 26.3061 19.4712 25.9394 19.6421C25.5721 19.8135 25.2635 20.0477 25.0211 20.3387C24.7793 20.6295 24.5975 20.9755 24.481 21.3681C24.365 21.7583 24.3066 22.1838 24.3066 22.6331C24.3066 23.09 24.367 23.516 24.4876 23.899C24.6084 24.2852 24.803 24.6243 25.0649 24.9065C25.3272 25.1897 25.6644 25.4119 26.0675 25.5667C26.4689 25.7212 26.9557 25.8014 27.515 25.7996C28.6668 25.7959 29.2729 25.5405 29.5231 25.4031C29.5671 25.3784 29.609 25.336 29.5567 25.2136L29.2961 24.4878C29.2559 24.3795 29.1457 24.4187 29.1457 24.4187C28.8601 24.5247 28.4555 24.714 27.5089 24.712C26.891 24.711 26.4327 24.5293 26.1449 24.2455C25.8507 23.9553 25.7058 23.5291 25.6813 22.9269L29.6679 22.9299C29.6679 22.9299 29.773 22.9289 29.7839 22.8269C29.7882 22.7847 29.9206 22.0127 29.6646 21.1198ZM17.0813 24.5443C16.9249 24.4202 16.9032 24.3898 16.8513 24.3091C16.7722 24.1877 16.7318 24.0148 16.7318 23.7934C16.7318 23.4454 16.8481 23.1946 17.0877 23.0262C17.0851 23.0267 17.4314 22.7291 18.244 22.7397C18.6065 22.7461 18.9681 22.7767 19.3265 22.8314V24.6333H19.327C19.327 24.6333 18.8202 24.7416 18.2498 24.7758C17.439 24.8243 17.0788 24.5436 17.0813 24.5443ZM18.6678 21.7583C18.5061 21.7465 18.2965 21.7407 18.0453 21.7407C17.7039 21.7407 17.3735 21.783 17.0634 21.8659C16.752 21.9493 16.472 22.0785 16.2311 22.2496C15.9904 22.4206 15.7924 22.6444 15.6526 22.9035C15.5113 23.1652 15.4392 23.4725 15.4392 23.8171C15.4392 24.1686 15.5007 24.4732 15.622 24.722C15.7407 24.9687 15.9194 25.182 16.1419 25.3428C16.3635 25.5031 16.637 25.6207 16.9542 25.6926C17.2674 25.7637 17.6222 25.7996 18.0099 25.7996C18.4194 25.7996 18.8266 25.7655 19.2211 25.6994C19.5572 25.6418 19.892 25.5771 20.2253 25.5054C20.3582 25.4749 20.5048 25.435 20.5048 25.435C20.6034 25.4101 20.5958 25.3053 20.5958 25.3053L20.5935 21.6799C20.5935 20.8848 20.3802 20.2957 19.9599 19.9298C19.5416 19.5657 18.9256 19.3817 18.1287 19.3817C17.8295 19.3817 17.3487 19.4219 17.0601 19.4795C17.0601 19.4795 16.1896 19.6473 15.8313 19.9265C15.8313 19.9265 15.7524 19.9748 15.7954 20.0841L16.0777 20.838C16.1128 20.9358 16.2086 20.9024 16.2086 20.9024C16.2086 20.9024 16.2387 20.8906 16.2741 20.8697C17.0409 20.455 18.0112 20.4674 18.0112 20.4674C18.4419 20.4674 18.7737 20.5541 18.9967 20.7237C19.2143 20.8898 19.3247 21.1399 19.3247 21.6684V21.836C18.9828 21.7867 18.6678 21.7583 18.6678 21.7583ZM50.8261 19.7159C50.8319 19.7027 50.8349 19.6884 50.835 19.674C50.8351 19.6596 50.8322 19.6453 50.8266 19.6319C50.821 19.6186 50.8128 19.6066 50.8024 19.5965C50.7921 19.5864 50.7797 19.5785 50.7662 19.5732C50.6982 19.5476 50.3593 19.4764 50.098 19.4604C49.5968 19.4292 49.319 19.5131 49.0698 19.6247C48.8226 19.7355 48.5489 19.9147 48.3962 20.119L48.3957 19.6355C48.3957 19.5692 48.3485 19.5157 48.2812 19.5157H47.2591C47.1929 19.5157 47.1449 19.5692 47.1449 19.6355V25.5493C47.1449 25.5812 47.1577 25.6118 47.1804 25.6344C47.2031 25.6569 47.2338 25.6696 47.2659 25.6697H48.3136C48.3456 25.6696 48.3764 25.6569 48.399 25.6344C48.4217 25.6118 48.4344 25.5812 48.4344 25.5493V22.5952C48.4344 22.1984 48.4784 21.8031 48.5661 21.5545C48.6525 21.3085 48.77 21.1125 48.9156 20.9715C49.0536 20.8354 49.2224 20.7344 49.408 20.677C49.5819 20.6273 49.7619 20.6021 49.9428 20.6021C50.1513 20.6021 50.3808 20.6553 50.3808 20.6553C50.4576 20.6639 50.5003 20.6171 50.5264 20.5483C50.5949 20.3671 50.789 19.824 50.8261 19.7159Z" fill="#FFFFFE"/>
<path fill-rule="evenodd" clip-rule="evenodd" d="M40.9965 16.9757C40.8672 16.9368 40.7356 16.9058 40.6025 16.8827C40.4234 16.853 40.2421 16.839 40.0606 16.841C39.3395 16.841 38.7711 17.0436 38.372 17.4436C37.9757 17.8407 37.706 18.4456 37.5708 19.2415L37.522 19.5102H36.6169C36.6169 19.5102 36.5065 19.5056 36.4832 19.6255L36.3346 20.4498C36.3242 20.5287 36.3584 20.578 36.4645 20.5775H37.3456L36.4516 25.5391C36.3816 25.9386 36.3015 26.2673 36.2128 26.5164C36.1253 26.7622 36.0399 26.9464 35.9348 27.0801C35.8329 27.2095 35.7363 27.3048 35.5698 27.3603C35.4323 27.4063 35.2741 27.4274 35.1007 27.4274C35.0041 27.4274 34.8757 27.4113 34.781 27.3925C34.6862 27.3739 34.6369 27.3527 34.5659 27.3231C34.5659 27.3231 34.4625 27.2839 34.4218 27.3869C34.3887 27.4711 34.1539 28.1132 34.1261 28.1926C34.0978 28.271 34.1375 28.3329 34.1875 28.3507C34.3048 28.3924 34.392 28.4191 34.5517 28.4565C34.7736 28.5085 34.9607 28.5118 35.1358 28.5118C35.5028 28.5118 35.8372 28.4605 36.1145 28.361C36.3935 28.2607 36.6364 28.0861 36.8512 27.8496C37.0835 27.5945 37.2296 27.3274 37.3694 26.963C37.5076 26.6018 37.6254 26.1535 37.7197 25.631L38.6179 20.5775H39.9312C39.9312 20.5775 40.0419 20.5815 40.0649 20.4621L40.2135 19.6378C40.2239 19.5589 40.19 19.5097 40.0834 19.5102H38.8087C38.8151 19.4815 38.8729 19.0357 39.0193 18.616C39.0817 18.4368 39.1992 18.2923 39.2988 18.193C39.3918 18.0985 39.5063 18.0276 39.6327 17.9865C39.7712 17.9439 39.9156 17.9232 40.0606 17.9251C40.1807 17.9251 40.2984 17.9395 40.3882 17.9581C40.5118 17.9842 40.5598 17.998 40.5921 18.0076C40.722 18.047 40.7395 18.0088 40.765 17.9463L41.0698 17.1139C41.1012 17.0245 41.0248 16.9868 40.9965 16.9757ZM23.1844 25.5496C23.1844 25.616 23.1369 25.67 23.0702 25.67H22.0129C21.946 25.67 21.8984 25.616 21.8984 25.5496V17.0885C21.8984 17.0224 21.946 16.9689 22.0129 16.9689H23.0702C23.1369 16.9689 23.1844 17.0224 23.1844 17.0885V25.5496Z" fill="#FFFFFE"/>
</g>
<defs>
<clipPath id="clip0_299_6">
<rect width="69" height="48" fill="white"/>
</clipPath>
</defs>
</svg>
