<svg width="29" height="20" viewBox="0 0 29 20" fill="none" xmlns="http://www.w3.org/2000/svg">
<mask id="mask0_299_2" style="mask-type:luminance" maskUnits="userSpaceOnUse" x="0" y="0" width="29" height="20">
<path d="M0 0H28.5763V20H0V0Z" fill="white"/>
</mask>
<g mask="url(#mask0_299_2)">
<path fill-rule="evenodd" clip-rule="evenodd" d="M11.8865 2.182C12.8083 1.2217 14.0917 0.625814 15.5111 0.625814C17.3978 0.625814 19.0441 1.6779 19.9205 3.23997C20.7046 2.88958 21.554 2.70898 22.4129 2.71004C25.816 2.71004 28.5748 5.49296 28.5748 8.92607C28.5748 12.3592 25.816 15.1422 22.4129 15.1422C21.9973 15.1422 21.5915 15.1004 21.199 15.0212C20.4272 16.3979 18.9559 17.3283 17.2676 17.3283C16.5847 17.3292 15.9106 17.1741 15.2969 16.8747C14.5145 18.7156 12.6909 20.0063 10.5662 20.0063C8.35314 20.0063 6.46698 18.6062 5.7435 16.6425C5.42105 16.7106 5.09238 16.7448 4.76282 16.7446C2.12798 16.7446 -0.0078125 14.5864 -0.0078125 11.9243C-0.0078125 10.14 0.95165 8.58223 2.37772 7.7489C2.07558 7.05316 1.9201 6.30262 1.92098 5.54411C1.92098 2.48225 4.40649 0 7.47244 0C9.27249 0 10.8723 0.855703 11.8865 2.182Z" fill="#00A1E0"/>
</g>
</svg>
