<svg width="28" height="28" viewBox="0 0 28 28" fill="none" xmlns="http://www.w3.org/2000/svg">
<rect width="28" height="28" rx="6" fill="#EFF6FF"/>
<g clip-path="url(#clip0_1_304)">
<path d="M19.7172 12.8337C19.9836 14.1411 19.7937 15.5004 19.1793 16.6847C18.5648 17.8691 17.5629 18.8071 16.3406 19.3421C15.1183 19.8772 13.7495 19.9771 12.4624 19.6251C11.1754 19.2731 10.048 18.4905 9.2681 17.4079C8.48823 16.3252 8.10309 15.0079 8.17691 13.6757C8.25072 12.3434 8.77903 11.0767 9.67373 10.0869C10.5684 9.09701 11.7754 8.44378 13.0935 8.23612C14.4115 8.02847 15.7609 8.27895 16.9166 8.94578M12.2502 13.4167L14.0002 15.1667L19.8335 9.33341" stroke="#48A3F7" stroke-width="1.5" stroke-linecap="round"/>
</g>
<defs>
<clipPath id="clip0_1_304">
<rect width="14" height="14" fill="white" transform="translate(7 7)"/>
</clipPath>
</defs>
</svg>
