<svg width="28" height="28" viewBox="0 0 28 28" fill="none" xmlns="http://www.w3.org/2000/svg">
<rect width="28" height="28" rx="6" fill="#F1EFFF"/>
<path d="M9.02123 15.0777C9.11471 15.1364 9.22293 15.1674 9.3333 15.167H13.4162C13.5105 15.1667 13.6035 15.1893 13.6872 15.2328C13.7709 15.2763 13.8428 15.3396 13.8967 15.417C13.9507 15.4944 13.985 15.5838 13.9968 15.6774C14.0086 15.771 13.9975 15.8661 13.9645 15.9545L12.8446 19.4664C12.827 19.5302 12.8317 19.5981 12.8578 19.6588C12.8839 19.7196 12.9299 19.7698 12.9882 19.801C13.0465 19.8322 13.1138 19.8426 13.1788 19.8306C13.2438 19.8185 13.3029 19.7848 13.3462 19.7347L19.1205 13.7844C19.1901 13.6987 19.2339 13.595 19.2468 13.4853C19.2598 13.3757 19.2414 13.2646 19.1937 13.1651C19.1461 13.0655 19.0712 12.9815 18.9777 12.9228C18.8842 12.8641 18.776 12.8331 18.6656 12.8335H14.5827C14.4884 12.8338 14.3954 12.8112 14.3117 12.7677C14.228 12.7241 14.1561 12.6609 14.1022 12.5835C14.0482 12.506 14.0139 12.4167 14.0021 12.3231C13.9903 12.2294 14.0014 12.1344 14.0344 12.046L15.1543 8.53408C15.1719 8.47029 15.1672 8.40243 15.1411 8.34163C15.115 8.28084 15.069 8.23073 15.0107 8.19952C14.9523 8.16832 14.8851 8.15787 14.8201 8.1699C14.755 8.18193 14.696 8.21573 14.6527 8.26573L8.87835 14.2161C8.80882 14.3018 8.76503 14.4055 8.75208 14.5152C8.73912 14.6248 8.75754 14.7358 8.80518 14.8354C8.85283 14.935 8.92774 15.019 9.02123 15.0777Z" stroke="#8C91FF" stroke-width="1.5" stroke-linecap="round"/>
</svg>
