<svg width="28" height="28" viewBox="0 0 28 28" fill="none" xmlns="http://www.w3.org/2000/svg">
<rect width="28" height="28" rx="6" fill="#F1EFFF"/>
<g clip-path="url(#clip0_1_325)">
<path d="M19.8338 14.0001C19.8338 17.222 17.2219 19.8339 14 19.8339M19.8338 14.0001C19.8338 10.7781 17.2219 8.16626 14 8.16626M19.8338 14.0001H8.1662M14 19.8339C10.7781 19.8339 8.1662 17.222 8.1662 14.0001M14 19.8339C12.502 18.261 11.6665 16.1721 11.6665 14.0001C11.6665 11.828 12.502 9.73914 14 8.16626M14 19.8339C15.498 18.261 16.3335 16.1721 16.3335 14.0001C16.3335 11.828 15.498 9.73914 14 8.16626M14 8.16626C10.7781 8.16626 8.1662 10.7781 8.1662 14.0001" stroke="#8C91FF" stroke-width="1.5" stroke-linecap="round"/>
</g>
<defs>
<clipPath id="clip0_1_325">
<rect width="14" height="14" fill="white" transform="translate(7 7)"/>
</clipPath>
</defs>
</svg>
