<svg width="28" height="28" viewBox="0 0 28 28" fill="none" xmlns="http://www.w3.org/2000/svg">
<rect width="28" height="28" rx="6" fill="#FFF9EF"/>
<path d="M8.92489 11.0837L13.9999 14.0005M13.9999 14.0005L19.0749 11.0837M13.9999 14.0005L14 19.8342M19.25 11.667C19.2498 11.4624 19.1958 11.2614 19.0934 11.0843C18.991 10.9071 18.8438 10.7601 18.6667 10.6577L14.5833 8.32428C14.406 8.22188 14.2048 8.16797 14 8.16797C13.7952 8.16797 13.594 8.22188 13.4167 8.32428L9.33333 10.6577C9.15615 10.7601 9.00899 10.9071 8.9066 11.0843C8.80422 11.2614 8.75021 11.4624 8.75 11.667V16.3339C8.75021 16.5385 8.80422 16.7395 8.9066 16.9166C9.00899 17.0937 9.15615 17.2408 9.33333 17.3431L13.4167 19.6766C13.594 19.779 13.7952 19.8329 14 19.8329C14.2048 19.8329 14.406 19.779 14.5833 19.6766L18.6667 17.3431C18.8438 17.2408 18.991 17.0937 19.0934 16.9166C19.1958 16.7395 19.2498 16.5385 19.25 16.3339V11.667Z" stroke="#FF8750" stroke-width="1.5" stroke-linecap="round"/>
</svg>
