<svg width="28" height="28" viewBox="0 0 28 28" fill="none" xmlns="http://www.w3.org/2000/svg">
<rect width="28" height="28" rx="6" fill="#EFF6FF"/>
<path d="M12.9889 19.2505C13.0913 19.4279 13.2386 19.5752 13.416 19.6776C13.5933 19.78 13.7945 19.8339 13.9993 19.8339C14.2041 19.8339 14.4053 19.78 14.5826 19.6776C14.76 19.5752 14.9072 19.4279 15.0096 19.2505M8.90241 15.9404C8.8262 16.0239 8.77591 16.1278 8.75766 16.2394C8.7394 16.351 8.75396 16.4655 8.79957 16.569C8.84518 16.6724 8.91987 16.7604 9.01456 16.8222C9.10925 16.884 9.21985 16.9169 9.33292 16.917H18.6664C18.7795 16.917 18.8901 16.8842 18.9849 16.8226C19.0796 16.7609 19.1544 16.673 19.2001 16.5696C19.2459 16.4662 19.2606 16.3517 19.2425 16.2402C19.2244 16.1286 19.1742 16.0246 19.0981 15.941C18.3223 15.1412 17.4998 14.2912 17.4998 11.6666C17.4998 10.7382 17.131 9.84791 16.4746 9.19147C15.8182 8.53504 14.928 8.16626 13.9997 8.16626C13.0714 8.16626 12.1811 8.53504 11.5248 9.19147C10.8684 9.84791 10.4996 10.7382 10.4996 11.6666C10.4996 14.2912 9.67651 15.1412 8.90241 15.9404Z" stroke="#48A3F7" stroke-width="1.5" stroke-linecap="round"/>
</svg>
