<svg width="87" height="47" viewBox="0 0 87 47" fill="none" xmlns="http://www.w3.org/2000/svg">
<g clip-path="url(#clip0_28_2)">
<mask id="mask0_28_2" style="mask-type:luminance" maskUnits="userSpaceOnUse" x="0" y="13" width="87" height="21">
<path d="M86.1875 13H0V34H86.1875V13Z" fill="white"/>
</mask>
<g mask="url(#mask0_28_2)">
<path d="M86.1879 19.0413V21.693H81.4448V19.0413H86.1879ZM79.9688 33.4749V16.8681C79.9688 16.0571 80.1329 15.3737 80.461 14.8179C80.7981 14.2621 81.2856 13.8383 81.9232 13.5468C82.5611 13.2552 83.3404 13.1094 84.2607 13.1094C84.6798 13.1094 85.0715 13.1094 85.4361 13.1094C85.8095 13.1094 86.0603 13.1094 86.1879 13.1094V15.761C86.0877 15.761 85.8917 15.761 85.6001 15.761C85.3085 15.761 85.0669 15.761 84.8757 15.761C84.2925 15.761 83.8734 15.8886 83.6181 16.1437C83.3722 16.3897 83.2491 16.8089 83.2491 17.4012V33.4749H79.9688Z" fill="#182C35"/>
<path d="M77.4132 13.1094V33.4749H74.1328V13.1094H77.4132Z" fill="#182C35"/>
<path d="M65.5899 33.8025C64.1501 33.8025 62.9062 33.479 61.8584 32.832C60.8106 32.1851 60.0041 31.2966 59.4393 30.1667C58.8742 29.0277 58.5918 27.7293 58.5918 26.2713C58.5918 24.8043 58.8834 23.5013 59.4666 22.3623C60.0498 21.2233 60.8561 20.3303 61.8858 19.6833C62.9154 19.0364 64.1 18.7129 65.4396 18.7129C66.4782 18.7129 67.4169 18.8951 68.2551 19.2596C69.0934 19.6241 69.8133 20.1435 70.4146 20.8178C71.0251 21.483 71.49 22.2757 71.8089 23.196C72.1368 24.1072 72.3009 25.1186 72.3009 26.2303V27.1188H59.9448V24.8088H70.6472L69.1846 25.4512C69.1846 24.6129 69.0297 23.8885 68.7197 23.278C68.4192 22.6584 67.9909 22.1846 67.435 21.8565C66.8884 21.5194 66.2367 21.3508 65.4805 21.3508C64.7332 21.3508 64.0864 21.5194 63.5395 21.8565C62.9929 22.1846 62.5646 22.6584 62.2548 23.278C61.954 23.8885 61.8037 24.6129 61.8037 25.4512V26.8727C61.8037 27.7201 61.954 28.4719 62.2548 29.128C62.5556 29.7749 62.9929 30.2806 63.5669 30.6451C64.1411 31.0005 64.838 31.1782 65.6581 31.1782C66.2505 31.1782 66.7744 31.0916 67.2301 30.9185C67.6857 30.7363 68.0637 30.4857 68.3645 30.1667C68.6742 29.8387 68.893 29.4606 69.0205 29.0323H72.1233C71.9411 29.9708 71.5447 30.8 70.9341 31.5199C70.3236 32.2306 69.5582 32.791 68.6379 33.2011C67.7174 33.602 66.7016 33.8025 65.5899 33.8025Z" fill="#182C35"/>
<path d="M47.1788 25.274V33.4749H43.8984V13.1094H47.1788V22.6907H46.4543C46.9192 21.3968 47.5706 20.4173 48.4089 19.7521C49.2563 19.0869 50.2997 18.7543 51.5389 18.7543C52.5413 18.7543 53.4296 18.973 54.2042 19.4104C54.9878 19.8386 55.5983 20.4765 56.0358 21.3239C56.4823 22.1714 56.7054 23.2192 56.7054 24.4676V33.4749H53.425V24.9597C53.425 23.8662 53.1608 23.0416 52.6323 22.4857C52.1129 21.9208 51.3795 21.6383 50.4319 21.6383C49.8121 21.6383 49.2563 21.7659 48.7643 22.021C48.2813 22.2761 47.8941 22.6725 47.6025 23.2101C47.3199 23.7386 47.1788 24.4266 47.1788 25.274Z" fill="#182C35"/>
<path d="M36.01 33.8162C34.8528 33.8162 33.8139 33.6339 32.8937 33.2695C31.9826 32.905 31.2489 32.3674 30.693 31.6566C30.1372 30.9459 29.8229 30.0711 29.75 29.0323H32.9893C33.0623 29.7613 33.3493 30.3263 33.8505 30.7272C34.3608 31.119 35.0578 31.3149 35.9417 31.3149C36.7981 31.3149 37.4725 31.1464 37.9645 30.8092C38.4567 30.4629 38.7026 30.0256 38.7026 29.4971C38.7026 29.0415 38.525 28.677 38.1695 28.4036C37.8142 28.1302 37.3266 27.9298 36.7071 27.8022L34.2604 27.2828C32.8937 26.9912 31.8548 26.4992 31.1441 25.8067C30.4334 25.105 30.0781 24.212 30.0781 23.1277C30.0781 22.2529 30.3104 21.4875 30.7751 20.8315C31.2489 20.1663 31.9141 19.6514 32.7707 19.287C33.6363 18.9134 34.6478 18.7266 35.805 18.7266C36.944 18.7266 37.951 18.9225 38.8257 19.3143C39.7005 19.697 40.3885 20.2483 40.8896 20.9681C41.3908 21.6789 41.655 22.5263 41.6824 23.5104H38.5796C38.5705 22.8452 38.32 22.2985 37.8278 21.8702C37.3358 21.4329 36.6844 21.2142 35.8733 21.2142C35.0989 21.2142 34.4838 21.3919 34.0281 21.7472C33.5816 22.0935 33.3583 22.5217 33.3583 23.032C33.3583 23.4876 33.5315 23.8567 33.8778 24.1392C34.2241 24.4125 34.7025 24.6175 35.313 24.7542L37.8689 25.2873C39.2995 25.5971 40.3474 26.0755 41.0126 26.7224C41.6868 27.3694 42.0241 28.2168 42.0241 29.2647C42.0241 30.1941 41.7642 31.0006 41.2449 31.684C40.7345 32.3674 40.0238 32.8959 39.1127 33.2695C38.2106 33.6339 37.1764 33.8162 36.01 33.8162Z" fill="#182C35"/>
<path d="M20.5456 17.6767C20.8062 17.6657 21.0558 17.5658 21.2554 17.405L25.6471 13.479C25.8136 13.3293 25.7692 13.2073 25.5419 13.2073H5.21854C4.9579 13.2184 4.70838 13.3182 4.50874 13.479L0.100277 17.405C-0.066081 17.5548 -0.0217189 17.6767 0.205636 17.6767H20.5456Z" fill="#EE8B3A"/>
<path d="M20.5456 25.7173C20.8062 25.7062 21.0558 25.6064 21.2554 25.4456L25.6471 21.5195C25.8136 21.3698 25.7692 21.2478 25.5419 21.2478H5.21854C4.9579 21.2644 4.70838 21.3587 4.50874 21.5251L0.100277 25.4456C-0.066081 25.5953 -0.0217189 25.7173 0.205636 25.7173H20.5456Z" fill="#48A3F7"/>
<path d="M20.5456 33.7516C20.8062 33.7405 21.0558 33.6407 21.2554 33.4799L25.6471 29.5539C25.8136 29.4042 25.7692 29.2822 25.5419 29.2822H5.21854C4.9579 29.2933 4.70838 29.3931 4.50874 29.5539L0.100277 33.4799C-0.066081 33.6296 -0.0217189 33.7516 0.205636 33.7516H20.5456Z" fill="#E93429"/>
</g>
</g>
<defs>
<clipPath id="clip0_28_2">
<rect width="87" height="21" fill="white" transform="translate(0 13)"/>
</clipPath>
</defs>
</svg>
