<svg width="99" height="24" viewBox="0 0 99 24" fill="none" xmlns="http://www.w3.org/2000/svg">
<g clip-path="url(#clip0_1_477)">
<path d="M98.3007 6.9044V9.9348H92.8908V6.9044H98.3007ZM91.207 23.3998V4.4207C91.207 3.49387 91.3947 2.71282 91.7683 2.07759C92.1531 1.44234 92.7096 0.958104 93.4361 0.624862C94.1643 0.29162 95.0529 0.125 96.1027 0.125C96.5802 0.125 97.0273 0.125 97.4432 0.125C97.8688 0.125 98.1546 0.125 98.3007 0.125V3.15542C98.1865 3.15542 97.963 3.15542 97.6301 3.15542C97.2971 3.15542 97.0217 3.15542 96.8037 3.15542C96.1387 3.15542 95.6604 3.30122 95.3698 3.5928C95.0896 3.87398 94.9491 4.353 94.9491 5.0299V23.3998H91.207Z" fill="white"/>
<path d="M88.292 0.125V23.3998H84.5508V0.125H88.292Z" fill="white"/>
<path d="M74.8078 23.775C73.1656 23.775 71.747 23.4054 70.5519 22.666C69.3568 21.9266 68.4369 20.9113 67.7927 19.6199C67.1482 18.3182 66.8262 16.8342 66.8262 15.1681C66.8262 13.4914 67.1588 12.0022 67.8239 10.7005C68.4891 9.39879 69.4087 8.37823 70.5831 7.63887C71.7575 6.89947 73.1085 6.52979 74.6364 6.52979C75.821 6.52979 76.8916 6.73807 77.8477 7.15461C78.8037 7.57116 79.6248 8.16471 80.3105 8.93535C81.0067 9.69559 81.5369 10.6016 81.9009 11.6534C82.2754 12.6948 82.4622 13.8507 82.4622 15.1212V16.1366H68.3693V13.4966H80.5756L78.9078 14.2308C78.9078 13.2727 78.7312 12.4449 78.3776 11.7471C78.0348 11.039 77.5463 10.4974 76.9123 10.1226C76.2888 9.73727 75.5455 9.54455 74.683 9.54455C73.8307 9.54455 73.093 9.73727 72.4693 10.1226C71.8458 10.4974 71.3573 11.039 71.004 11.7471C70.6609 12.4449 70.4895 13.2727 70.4895 14.2308V15.8554C70.4895 16.8238 70.6609 17.683 71.004 18.4328C71.347 19.1722 71.8458 19.7501 72.5005 20.1666C73.1554 20.5728 73.9503 20.7759 74.8857 20.7759C75.5612 20.7759 76.1588 20.677 76.6785 20.4791C77.1983 20.2708 77.6294 19.9845 77.9724 19.6199C78.3257 19.245 78.5752 18.8129 78.7206 18.3234H82.2594C82.0518 19.3961 81.5999 20.3437 80.9029 21.1664C80.2067 21.9787 79.3339 22.6191 78.2843 23.0878C77.2344 23.546 76.0757 23.775 74.8078 23.775Z" fill="white"/>
<path d="M53.8098 14.0274V23.3998H50.0684V0.125H53.8098V11.0751H52.9835C53.5136 9.5964 54.2567 8.47688 55.2128 7.71667C56.1793 6.95647 57.3694 6.57635 58.7828 6.57635C59.926 6.57635 60.9392 6.8263 61.8226 7.32615C62.7163 7.8156 63.4127 8.54456 63.9117 9.51304C64.4209 10.4815 64.6754 11.6791 64.6754 13.1058V23.3998H60.9339V13.6682C60.9339 12.4186 60.6325 11.4761 60.0298 10.8408C59.4374 10.1952 58.6009 9.87232 57.5201 9.87232C56.8133 9.87232 56.1793 10.0182 55.6182 10.3098C55.0673 10.6013 54.6257 11.0543 54.2931 11.6687C53.9707 12.2727 53.8098 13.059 53.8098 14.0274Z" fill="white"/>
<path d="M41.0715 23.7902C39.7517 23.7902 38.5668 23.5819 37.5173 23.1653C36.4781 22.7488 35.6413 22.1344 35.0073 21.3221C34.3733 20.5098 34.0148 19.5101 33.9317 18.3229H37.6262C37.7096 19.1561 38.0369 19.8017 38.6085 20.2599C39.1906 20.7077 39.9855 20.9316 40.9937 20.9316C41.9705 20.9316 42.7397 20.7389 43.3008 20.3537C43.8621 19.9579 44.1426 19.4581 44.1426 18.8541C44.1426 18.3333 43.94 17.9168 43.5345 17.6044C43.1294 17.292 42.5733 17.0629 41.8667 16.9171L39.0761 16.3235C37.5173 15.9903 36.3324 15.4279 35.5218 14.6365C34.7112 13.8346 34.306 12.8141 34.306 11.5748C34.306 10.5751 34.5709 9.70031 35.1009 8.95055C35.6413 8.19031 36.4 7.60192 37.377 7.18538C38.3643 6.75843 39.5179 6.54492 40.8377 6.54492C42.1369 6.54492 43.2853 6.76883 44.283 7.21663C45.2808 7.654 46.0654 8.28407 46.6371 9.10671C47.2086 9.91903 47.51 10.8875 47.5412 12.0121H44.0024C43.9919 11.252 43.7062 10.6272 43.1448 10.1377C42.5837 9.63783 41.8408 9.38791 40.9156 9.38791C40.0324 9.38791 39.3308 9.59095 38.8111 9.99711C38.3019 10.3928 38.0471 10.8823 38.0471 11.4654C38.0471 11.9861 38.2447 12.4079 38.6397 12.7308C39.0347 13.0432 39.5803 13.2775 40.2766 13.4337L43.1918 14.0429C44.8235 14.3969 46.0186 14.9437 46.7773 15.683C47.5462 16.4224 47.9309 17.3909 47.9309 18.5885C47.9309 19.6507 47.6345 20.5724 47.0423 21.3533C46.4601 22.1344 45.6495 22.7384 44.6104 23.1653C43.5815 23.5819 42.4019 23.7902 41.0715 23.7902Z" fill="white"/>
<path d="M23.4333 5.34479C23.7306 5.33211 24.0152 5.21803 24.2429 5.03423L29.2519 0.547352C29.4418 0.376239 29.3911 0.236816 29.1319 0.236816H5.95202C5.65475 0.249491 5.37015 0.363564 5.14246 0.547352L0.114371 5.03423C-0.0753687 5.20536 -0.0247715 5.34479 0.234539 5.34479H23.4333Z" fill="#EE8B3A"/>
<path d="M23.4333 14.5343C23.7306 14.5215 24.0152 14.4075 24.2429 14.2237L29.2519 9.73683C29.4418 9.56571 29.3911 9.42627 29.1319 9.42627H5.95202C5.65475 9.44531 5.37015 9.55299 5.14246 9.74315L0.114371 14.2237C-0.0753687 14.3948 -0.0247715 14.5343 0.234539 14.5343H23.4333Z" fill="#48A3F7"/>
<path d="M23.4333 23.7164C23.7306 23.7037 24.0152 23.5896 24.2429 23.4058L29.2519 18.919C29.4418 18.7478 29.3911 18.6084 29.1319 18.6084H5.95202C5.65475 18.6211 5.37015 18.7352 5.14246 18.919L0.114371 23.4058C-0.0753687 23.577 -0.0247715 23.7164 0.234539 23.7164H23.4333Z" fill="#E93429"/>
</g>
<defs>
<clipPath id="clip0_1_477">
<rect width="99" height="24" fill="white"/>
</clipPath>
</defs>
</svg>
